%TF.GenerationSoftware,KiCad,Pcbnew,8.0.0*%
%TF.CreationDate,2024-03-07T10:06:40-08:00*%
%TF.ProjectId,555_Badge,3535355f-4261-4646-9765-2e6b69636164,v01*%
%TF.SameCoordinates,Original*%
%TF.FileFunction,Soldermask,Bot*%
%TF.FilePolarity,Negative*%
%FSLAX46Y46*%
G04 Gerber Fmt 4.6, Leading zero omitted, Abs format (unit mm)*
G04 Created by KiCad (PCBNEW 8.0.0) date 2024-03-07 10:06:40*
%MOMM*%
%LPD*%
G01*
G04 APERTURE LIST*
%ADD10C,1.524000*%
%ADD11C,1.600000*%
%ADD12O,1.600000X1.600000*%
%ADD13R,1.800000X1.800000*%
%ADD14C,1.800000*%
%ADD15R,1.600000X1.600000*%
%ADD16R,2.170000X2.170000*%
%ADD17C,2.500000*%
%ADD18R,1.900000X1.900000*%
%ADD19C,1.900000*%
%ADD20R,1.500000X1.000000*%
%ADD21O,1.500000X1.000000*%
G04 APERTURE END LIST*
D10*
%TO.C,U1*%
X153162000Y-124714000D03*
X155702000Y-124714000D03*
X158242000Y-124714000D03*
X160782000Y-124714000D03*
X160782000Y-117094000D03*
X158242000Y-117094000D03*
X155702000Y-117094000D03*
X153162000Y-117094000D03*
%TD*%
D11*
%TO.C,R7*%
X170942000Y-110744000D03*
D12*
X170942000Y-103124000D03*
%TD*%
D13*
%TO.C,D1*%
X147828000Y-76200000D03*
D14*
X147828000Y-73660000D03*
%TD*%
D11*
%TO.C,R2*%
X163322000Y-110744000D03*
D12*
X163322000Y-103124000D03*
%TD*%
D15*
%TO.C,C1*%
X165862000Y-121444000D03*
D11*
X165862000Y-123444000D03*
%TD*%
D15*
%TO.C,C2*%
X174752000Y-120944000D03*
D11*
X174752000Y-123444000D03*
%TD*%
D16*
%TO.C,BAT1*%
X139192000Y-122059700D03*
D17*
X139192000Y-102059700D03*
%TD*%
D11*
%TO.C,R6*%
X167132000Y-110744000D03*
D12*
X167132000Y-103124000D03*
%TD*%
D11*
%TO.C,R1*%
X159512000Y-103124000D03*
D12*
X159512000Y-110744000D03*
%TD*%
D13*
%TO.C,D2*%
X159512000Y-76200000D03*
D14*
X159512000Y-73660000D03*
%TD*%
D11*
%TO.C,R3*%
X174752000Y-110744000D03*
D12*
X174752000Y-103124000D03*
%TD*%
D11*
%TO.C,R5*%
X178562000Y-114554000D03*
D12*
X170942000Y-114554000D03*
%TD*%
D11*
%TO.C,R4*%
X178562000Y-103124000D03*
D12*
X178562000Y-110744000D03*
%TD*%
D18*
%TO.C,S1*%
X154432000Y-109394000D03*
D19*
X154432000Y-106894000D03*
X154432000Y-104394000D03*
%TD*%
D20*
%TO.C,Q1*%
X165862000Y-117094000D03*
D21*
X165862000Y-115824000D03*
X165862000Y-114554000D03*
%TD*%
M02*
