%TF.GenerationSoftware,KiCad,Pcbnew,8.0.0*%
%TF.CreationDate,2024-03-07T10:06:40-08:00*%
%TF.ProjectId,555_Badge,3535355f-4261-4646-9765-2e6b69636164,v01*%
%TF.SameCoordinates,Original*%
%TF.FileFunction,Copper,L1,Top*%
%TF.FilePolarity,Positive*%
%FSLAX46Y46*%
G04 Gerber Fmt 4.6, Leading zero omitted, Abs format (unit mm)*
G04 Created by KiCad (PCBNEW 8.0.0) date 2024-03-07 10:06:40*
%MOMM*%
%LPD*%
G01*
G04 APERTURE LIST*
%TA.AperFunction,ComponentPad*%
%ADD10C,1.524000*%
%TD*%
%TA.AperFunction,ComponentPad*%
%ADD11C,1.600000*%
%TD*%
%TA.AperFunction,ComponentPad*%
%ADD12O,1.600000X1.600000*%
%TD*%
%TA.AperFunction,ComponentPad*%
%ADD13R,1.800000X1.800000*%
%TD*%
%TA.AperFunction,ComponentPad*%
%ADD14C,1.800000*%
%TD*%
%TA.AperFunction,ComponentPad*%
%ADD15R,1.600000X1.600000*%
%TD*%
%TA.AperFunction,ComponentPad*%
%ADD16R,2.170000X2.170000*%
%TD*%
%TA.AperFunction,ComponentPad*%
%ADD17C,2.500000*%
%TD*%
%TA.AperFunction,ComponentPad*%
%ADD18R,1.900000X1.900000*%
%TD*%
%TA.AperFunction,ComponentPad*%
%ADD19C,1.900000*%
%TD*%
%TA.AperFunction,ComponentPad*%
%ADD20R,1.500000X1.000000*%
%TD*%
%TA.AperFunction,ComponentPad*%
%ADD21O,1.500000X1.000000*%
%TD*%
%TA.AperFunction,ViaPad*%
%ADD22C,0.762000*%
%TD*%
%TA.AperFunction,Conductor*%
%ADD23C,0.762000*%
%TD*%
%TA.AperFunction,Conductor*%
%ADD24C,0.254000*%
%TD*%
G04 APERTURE END LIST*
D10*
%TO.P,U1,1,GND*%
%TO.N,GND*%
X153162000Y-124714000D03*
%TO.P,U1,2,~{TRID}*%
%TO.N,Net-(U1-THRESH)*%
X155702000Y-124714000D03*
%TO.P,U1,3,OUT*%
%TO.N,Net-(U1-OUT)*%
X158242000Y-124714000D03*
%TO.P,U1,4,~{RST}*%
%TO.N,VCC*%
X160782000Y-124714000D03*
%TO.P,U1,5,CV*%
%TO.N,unconnected-(U1-CV-Pad5)*%
X160782000Y-117094000D03*
%TO.P,U1,6,THRESH*%
%TO.N,Net-(U1-THRESH)*%
X158242000Y-117094000D03*
%TO.P,U1,7,DIS*%
%TO.N,Net-(U1-DIS)*%
X155702000Y-117094000D03*
%TO.P,U1,8,VDD*%
%TO.N,VCC*%
X153162000Y-117094000D03*
%TD*%
D11*
%TO.P,R7,1*%
%TO.N,VCC*%
X170942000Y-110744000D03*
D12*
%TO.P,R7,2*%
%TO.N,Net-(D2-A)*%
X170942000Y-103124000D03*
%TD*%
D13*
%TO.P,D1,1,K*%
%TO.N,Net-(D1-K)*%
X147828000Y-76200000D03*
D14*
%TO.P,D1,2,A*%
%TO.N,Net-(D1-A)*%
X147828000Y-73660000D03*
%TD*%
D11*
%TO.P,R2,1*%
%TO.N,Net-(U1-DIS)*%
X163322000Y-110744000D03*
D12*
%TO.P,R2,2*%
%TO.N,Net-(U1-THRESH)*%
X163322000Y-103124000D03*
%TD*%
D15*
%TO.P,C1,1*%
%TO.N,Net-(U1-THRESH)*%
X165862000Y-121444000D03*
D11*
%TO.P,C1,2*%
%TO.N,GND*%
X165862000Y-123444000D03*
%TD*%
D15*
%TO.P,C2,1*%
%TO.N,Net-(C2-Pad1)*%
X174752000Y-120944000D03*
D11*
%TO.P,C2,2*%
%TO.N,GND*%
X174752000Y-123444000D03*
%TD*%
D16*
%TO.P,BAT1,Neg*%
%TO.N,GND*%
X139192000Y-122059700D03*
D17*
%TO.P,BAT1,Pos*%
%TO.N,Net-(BAT1-PadPos)*%
X139192000Y-102059700D03*
%TD*%
D11*
%TO.P,R6,1*%
%TO.N,VCC*%
X167132000Y-110744000D03*
D12*
%TO.P,R6,2*%
%TO.N,Net-(D1-A)*%
X167132000Y-103124000D03*
%TD*%
D11*
%TO.P,R1,1*%
%TO.N,VCC*%
X159512000Y-103124000D03*
D12*
%TO.P,R1,2*%
%TO.N,Net-(U1-DIS)*%
X159512000Y-110744000D03*
%TD*%
D13*
%TO.P,D2,1,K*%
%TO.N,Net-(D1-K)*%
X159512000Y-76200000D03*
D14*
%TO.P,D2,2,A*%
%TO.N,Net-(D2-A)*%
X159512000Y-73660000D03*
%TD*%
D11*
%TO.P,R3,1*%
%TO.N,Net-(C2-Pad1)*%
X174752000Y-110744000D03*
D12*
%TO.P,R3,2*%
%TO.N,Net-(U1-OUT)*%
X174752000Y-103124000D03*
%TD*%
D11*
%TO.P,R5,1*%
%TO.N,Net-(C2-Pad1)*%
X178562000Y-114554000D03*
D12*
%TO.P,R5,2*%
%TO.N,Net-(Q1-B)*%
X170942000Y-114554000D03*
%TD*%
D11*
%TO.P,R4,1*%
%TO.N,Net-(C2-Pad1)*%
X178562000Y-103124000D03*
D12*
%TO.P,R4,2*%
%TO.N,GND*%
X178562000Y-110744000D03*
%TD*%
D18*
%TO.P,S1,1*%
%TO.N,unconnected-(S1-Pad1)*%
X154432000Y-109394000D03*
D19*
%TO.P,S1,2*%
%TO.N,VCC*%
X154432000Y-106894000D03*
%TO.P,S1,3*%
%TO.N,Net-(BAT1-PadPos)*%
X154432000Y-104394000D03*
%TD*%
D20*
%TO.P,Q1,1,E*%
%TO.N,GND*%
X165862000Y-117094000D03*
D21*
%TO.P,Q1,2,B*%
%TO.N,Net-(Q1-B)*%
X165862000Y-115824000D03*
%TO.P,Q1,3,C*%
%TO.N,Net-(D1-K)*%
X165862000Y-114554000D03*
%TD*%
D22*
%TO.N,Net-(D1-K)*%
X169418000Y-111506000D03*
%TD*%
D23*
%TO.N,Net-(BAT1-PadPos)*%
X152097700Y-102059700D02*
X154432000Y-104394000D01*
X139192000Y-102059700D02*
X152097700Y-102059700D01*
D24*
%TO.N,Net-(U1-THRESH)*%
X158242000Y-119380000D02*
X160274000Y-121412000D01*
X160274000Y-121412000D02*
X160782000Y-121412000D01*
X158242000Y-117094000D02*
X158242000Y-119380000D01*
X160814000Y-121444000D02*
X165862000Y-121444000D01*
X160782000Y-121412000D02*
X160814000Y-121444000D01*
%TO.N,Net-(C2-Pad1)*%
X174752000Y-110744000D02*
X174752000Y-108458000D01*
X174752000Y-120944000D02*
X174752000Y-119888000D01*
X174752000Y-119888000D02*
X178562000Y-116078000D01*
X174752000Y-108458000D02*
X178562000Y-104648000D01*
X178562000Y-116078000D02*
X178562000Y-114554000D01*
X178562000Y-104648000D02*
X178562000Y-103124000D01*
X178562000Y-114554000D02*
X174752000Y-110744000D01*
%TO.N,Net-(D1-K)*%
X169418000Y-111506000D02*
X169418000Y-112522000D01*
X167386000Y-114554000D02*
X165862000Y-114554000D01*
X169418000Y-112522000D02*
X167386000Y-114554000D01*
%TO.N,Net-(Q1-B)*%
X165862000Y-115824000D02*
X167894000Y-115824000D01*
X167894000Y-115824000D02*
X169164000Y-114554000D01*
X169164000Y-114554000D02*
X170942000Y-114554000D01*
%TO.N,VCC*%
X152186000Y-106894000D02*
X151384000Y-107696000D01*
D23*
X167132000Y-107148000D02*
X167386000Y-106894000D01*
D24*
X151384000Y-115316000D02*
X153162000Y-117094000D01*
X154432000Y-106894000D02*
X152186000Y-106894000D01*
D23*
X159512000Y-106894000D02*
X167386000Y-106894000D01*
X167386000Y-106894000D02*
X169632000Y-106894000D01*
D24*
X151384000Y-107696000D02*
X151384000Y-115316000D01*
D23*
X159512000Y-103124000D02*
X159512000Y-106894000D01*
X167132000Y-110744000D02*
X167132000Y-107148000D01*
X170942000Y-108204000D02*
X170942000Y-110744000D01*
X154432000Y-106894000D02*
X159512000Y-106894000D01*
D24*
X153162000Y-117094000D02*
X160782000Y-124714000D01*
D23*
X169632000Y-106894000D02*
X170942000Y-108204000D01*
D24*
%TO.N,Net-(U1-DIS)*%
X159512000Y-110744000D02*
X163322000Y-110744000D01*
X155702000Y-117094000D02*
X155702000Y-114554000D01*
X155702000Y-114554000D02*
X159512000Y-110744000D01*
%TD*%
%TA.AperFunction,Conductor*%
%TO.N,GND*%
G36*
X180289621Y-41922502D02*
G01*
X180336114Y-41976158D01*
X180347500Y-42028500D01*
X180347500Y-126373500D01*
X180327498Y-126441621D01*
X180273842Y-126488114D01*
X180221500Y-126499500D01*
X127626500Y-126499500D01*
X127558379Y-126479498D01*
X127511886Y-126425842D01*
X127500500Y-126373500D01*
X127500500Y-124714000D01*
X151895179Y-124714000D01*
X151914425Y-124933979D01*
X151971577Y-125147276D01*
X151971579Y-125147281D01*
X152064903Y-125347416D01*
X152064904Y-125347417D01*
X152110257Y-125412187D01*
X152781000Y-124741445D01*
X152781000Y-124764160D01*
X152806964Y-124861061D01*
X152857124Y-124947940D01*
X152928060Y-125018876D01*
X153014939Y-125069036D01*
X153111840Y-125095000D01*
X153134553Y-125095000D01*
X152463811Y-125765740D01*
X152463811Y-125765741D01*
X152528588Y-125811098D01*
X152728718Y-125904420D01*
X152728723Y-125904422D01*
X152942020Y-125961574D01*
X153162000Y-125980820D01*
X153381979Y-125961574D01*
X153595276Y-125904422D01*
X153595281Y-125904420D01*
X153795410Y-125811099D01*
X153860187Y-125765741D01*
X153860187Y-125765739D01*
X153189448Y-125095000D01*
X153212160Y-125095000D01*
X153309061Y-125069036D01*
X153395940Y-125018876D01*
X153466876Y-124947940D01*
X153517036Y-124861061D01*
X153543000Y-124764160D01*
X153543000Y-124741448D01*
X154213739Y-125412187D01*
X154213741Y-125412187D01*
X154259099Y-125347410D01*
X154352420Y-125147281D01*
X154352422Y-125147276D01*
X154409574Y-124933978D01*
X154428819Y-124713999D01*
X154680581Y-124713999D01*
X154700206Y-124913261D01*
X154700206Y-124913263D01*
X154758332Y-125104877D01*
X154758334Y-125104883D01*
X154852720Y-125281466D01*
X154852722Y-125281469D01*
X154979748Y-125436252D01*
X155134531Y-125563278D01*
X155311120Y-125657667D01*
X155502731Y-125715792D01*
X155502735Y-125715792D01*
X155502737Y-125715793D01*
X155701997Y-125735418D01*
X155702000Y-125735418D01*
X155702003Y-125735418D01*
X155901261Y-125715793D01*
X155901263Y-125715793D01*
X155901264Y-125715792D01*
X155901269Y-125715792D01*
X156092880Y-125657667D01*
X156269469Y-125563278D01*
X156424252Y-125436252D01*
X156551278Y-125281469D01*
X156645667Y-125104880D01*
X156703792Y-124913269D01*
X156718478Y-124764160D01*
X156723418Y-124714003D01*
X157220582Y-124714003D01*
X157240206Y-124913261D01*
X157240206Y-124913263D01*
X157298332Y-125104877D01*
X157298334Y-125104883D01*
X157392720Y-125281466D01*
X157392722Y-125281469D01*
X157519748Y-125436252D01*
X157674531Y-125563278D01*
X157851120Y-125657667D01*
X158042731Y-125715792D01*
X158042735Y-125715792D01*
X158042737Y-125715793D01*
X158241997Y-125735418D01*
X158242000Y-125735418D01*
X158242003Y-125735418D01*
X158441261Y-125715793D01*
X158441263Y-125715793D01*
X158441264Y-125715792D01*
X158441269Y-125715792D01*
X158632880Y-125657667D01*
X158809469Y-125563278D01*
X158964252Y-125436252D01*
X159091278Y-125281469D01*
X159185667Y-125104880D01*
X159243792Y-124913269D01*
X159258478Y-124764160D01*
X159263418Y-124714003D01*
X159263418Y-124713996D01*
X159243793Y-124514738D01*
X159243793Y-124514736D01*
X159243792Y-124514733D01*
X159243792Y-124514731D01*
X159185667Y-124323120D01*
X159091278Y-124146531D01*
X158964252Y-123991748D01*
X158809469Y-123864722D01*
X158809467Y-123864721D01*
X158809466Y-123864720D01*
X158632883Y-123770334D01*
X158632877Y-123770332D01*
X158441262Y-123712206D01*
X158242003Y-123692582D01*
X158241997Y-123692582D01*
X158042738Y-123712206D01*
X158042736Y-123712206D01*
X157851122Y-123770332D01*
X157851116Y-123770334D01*
X157674533Y-123864720D01*
X157519748Y-123991748D01*
X157392720Y-124146533D01*
X157298334Y-124323116D01*
X157298332Y-124323122D01*
X157240206Y-124514736D01*
X157240206Y-124514738D01*
X157220582Y-124713996D01*
X157220582Y-124714003D01*
X156723418Y-124714003D01*
X156723418Y-124713996D01*
X156703793Y-124514738D01*
X156703793Y-124514736D01*
X156703792Y-124514733D01*
X156703792Y-124514731D01*
X156645667Y-124323120D01*
X156551278Y-124146531D01*
X156424252Y-123991748D01*
X156269469Y-123864722D01*
X156269467Y-123864721D01*
X156269466Y-123864720D01*
X156092883Y-123770334D01*
X156092877Y-123770332D01*
X155901262Y-123712206D01*
X155702003Y-123692582D01*
X155701997Y-123692582D01*
X155502738Y-123712206D01*
X155502736Y-123712206D01*
X155311122Y-123770332D01*
X155311116Y-123770334D01*
X155134533Y-123864720D01*
X154979748Y-123991748D01*
X154852720Y-124146533D01*
X154758334Y-124323116D01*
X154758332Y-124323122D01*
X154700206Y-124514736D01*
X154700206Y-124514738D01*
X154680581Y-124713999D01*
X154428819Y-124713999D01*
X154409574Y-124494021D01*
X154352422Y-124280723D01*
X154352420Y-124280718D01*
X154259099Y-124080590D01*
X154213740Y-124015811D01*
X153543000Y-124686551D01*
X153543000Y-124663840D01*
X153517036Y-124566939D01*
X153466876Y-124480060D01*
X153395940Y-124409124D01*
X153309061Y-124358964D01*
X153212160Y-124333000D01*
X153189447Y-124333000D01*
X153860187Y-123662257D01*
X153860187Y-123662256D01*
X153795417Y-123616904D01*
X153795416Y-123616903D01*
X153595281Y-123523579D01*
X153595276Y-123523577D01*
X153381979Y-123466425D01*
X153162000Y-123447179D01*
X152942020Y-123466425D01*
X152728723Y-123523577D01*
X152728719Y-123523579D01*
X152528589Y-123616901D01*
X152463810Y-123662258D01*
X153134552Y-124333000D01*
X153111840Y-124333000D01*
X153014939Y-124358964D01*
X152928060Y-124409124D01*
X152857124Y-124480060D01*
X152806964Y-124566939D01*
X152781000Y-124663840D01*
X152781000Y-124686552D01*
X152110258Y-124015810D01*
X152064901Y-124080589D01*
X151971579Y-124280719D01*
X151971577Y-124280723D01*
X151914425Y-124494020D01*
X151895179Y-124714000D01*
X127500500Y-124714000D01*
X127500500Y-123192540D01*
X137607000Y-123192540D01*
X137613400Y-123252071D01*
X137663647Y-123386789D01*
X137749810Y-123501889D01*
X137864910Y-123588052D01*
X137999628Y-123638299D01*
X138059159Y-123644699D01*
X138059176Y-123644700D01*
X138942000Y-123644700D01*
X138942000Y-122590862D01*
X138966198Y-122604833D01*
X139114983Y-122644700D01*
X139269017Y-122644700D01*
X139417802Y-122604833D01*
X139442000Y-122590862D01*
X139442000Y-123644700D01*
X140324824Y-123644700D01*
X140324840Y-123644699D01*
X140384371Y-123638299D01*
X140519089Y-123588052D01*
X140634189Y-123501889D01*
X140720352Y-123386789D01*
X140770599Y-123252071D01*
X140776999Y-123192540D01*
X140777000Y-123192523D01*
X140777000Y-122309700D01*
X139723162Y-122309700D01*
X139737133Y-122285502D01*
X139777000Y-122136717D01*
X139777000Y-121982683D01*
X139737133Y-121833898D01*
X139723162Y-121809700D01*
X140777000Y-121809700D01*
X140777000Y-120926876D01*
X140776999Y-120926859D01*
X140770599Y-120867328D01*
X140720352Y-120732610D01*
X140634189Y-120617510D01*
X140519089Y-120531347D01*
X140384371Y-120481100D01*
X140324840Y-120474700D01*
X139442000Y-120474700D01*
X139442000Y-121528537D01*
X139417802Y-121514567D01*
X139269017Y-121474700D01*
X139114983Y-121474700D01*
X138966198Y-121514567D01*
X138942000Y-121528537D01*
X138942000Y-120474700D01*
X138059159Y-120474700D01*
X137999628Y-120481100D01*
X137864910Y-120531347D01*
X137749810Y-120617510D01*
X137663647Y-120732610D01*
X137613400Y-120867328D01*
X137607000Y-120926859D01*
X137607000Y-121809700D01*
X138660838Y-121809700D01*
X138646867Y-121833898D01*
X138607000Y-121982683D01*
X138607000Y-122136717D01*
X138646867Y-122285502D01*
X138660838Y-122309700D01*
X137607000Y-122309700D01*
X137607000Y-123192540D01*
X127500500Y-123192540D01*
X127500500Y-102059700D01*
X137682848Y-102059700D01*
X137701428Y-102295782D01*
X137756711Y-102526054D01*
X137842060Y-102732105D01*
X137847336Y-102744841D01*
X137953011Y-102917288D01*
X137971071Y-102946758D01*
X137971072Y-102946760D01*
X138124867Y-103126832D01*
X138234044Y-103220077D01*
X138304943Y-103280630D01*
X138506859Y-103404364D01*
X138725646Y-103494989D01*
X138955917Y-103550272D01*
X139192000Y-103568852D01*
X139428083Y-103550272D01*
X139658354Y-103494989D01*
X139877141Y-103404364D01*
X140079057Y-103280630D01*
X140259132Y-103126832D01*
X140412930Y-102946757D01*
X140530214Y-102755365D01*
X140582862Y-102707734D01*
X140637647Y-102695200D01*
X151782277Y-102695200D01*
X151850398Y-102715202D01*
X151871372Y-102732105D01*
X153206883Y-104067616D01*
X153240909Y-104129928D01*
X153243251Y-104168337D01*
X153242937Y-104171726D01*
X153222341Y-104393995D01*
X153222340Y-104394005D01*
X153242936Y-104616272D01*
X153293860Y-104795253D01*
X153304026Y-104830980D01*
X153403526Y-105030804D01*
X153403527Y-105030805D01*
X153403528Y-105030807D01*
X153538048Y-105208942D01*
X153703014Y-105359328D01*
X153703016Y-105359329D01*
X153703017Y-105359330D01*
X153892808Y-105476843D01*
X153937439Y-105494133D01*
X154021009Y-105526509D01*
X154077304Y-105569768D01*
X154101274Y-105636596D01*
X154085310Y-105705774D01*
X154034479Y-105755340D01*
X154021009Y-105761491D01*
X153892814Y-105811154D01*
X153892807Y-105811157D01*
X153703014Y-105928671D01*
X153538048Y-106079057D01*
X153403528Y-106257192D01*
X153403526Y-106257195D01*
X153403526Y-106257196D01*
X153311173Y-106442665D01*
X153262907Y-106494726D01*
X153198385Y-106512500D01*
X152135775Y-106512500D01*
X152076390Y-106528412D01*
X152038741Y-106538500D01*
X151951756Y-106588721D01*
X151951751Y-106588725D01*
X151916238Y-106624239D01*
X151880724Y-106659753D01*
X151880722Y-106659755D01*
X151132030Y-107408446D01*
X151132028Y-107408448D01*
X151078729Y-107461746D01*
X151078721Y-107461756D01*
X151028500Y-107548741D01*
X151002500Y-107645776D01*
X151002500Y-115366223D01*
X151002499Y-115366223D01*
X151028498Y-115463251D01*
X151028501Y-115463258D01*
X151068734Y-115532943D01*
X151068735Y-115532946D01*
X151078720Y-115550242D01*
X151078727Y-115550251D01*
X152168017Y-116639540D01*
X152202042Y-116701852D01*
X152199497Y-116765210D01*
X152160207Y-116894733D01*
X152160206Y-116894738D01*
X152140582Y-117093996D01*
X152140582Y-117094003D01*
X152160206Y-117293261D01*
X152160206Y-117293263D01*
X152218332Y-117484877D01*
X152218334Y-117484883D01*
X152302221Y-117641823D01*
X152312722Y-117661469D01*
X152439748Y-117816252D01*
X152594531Y-117943278D01*
X152653394Y-117974741D01*
X152770530Y-118037352D01*
X152771120Y-118037667D01*
X152962731Y-118095792D01*
X152962735Y-118095792D01*
X152962737Y-118095793D01*
X153161997Y-118115418D01*
X153162000Y-118115418D01*
X153162003Y-118115418D01*
X153361261Y-118095793D01*
X153361263Y-118095792D01*
X153361269Y-118095792D01*
X153387015Y-118087982D01*
X153490788Y-118056503D01*
X153561782Y-118055869D01*
X153616459Y-118087982D01*
X159788018Y-124259540D01*
X159822044Y-124321852D01*
X159819498Y-124385211D01*
X159780206Y-124514736D01*
X159780206Y-124514738D01*
X159760582Y-124713996D01*
X159760582Y-124714003D01*
X159780206Y-124913261D01*
X159780206Y-124913263D01*
X159838332Y-125104877D01*
X159838334Y-125104883D01*
X159932720Y-125281466D01*
X159932722Y-125281469D01*
X160059748Y-125436252D01*
X160214531Y-125563278D01*
X160391120Y-125657667D01*
X160582731Y-125715792D01*
X160582735Y-125715792D01*
X160582737Y-125715793D01*
X160781997Y-125735418D01*
X160782000Y-125735418D01*
X160782003Y-125735418D01*
X160981261Y-125715793D01*
X160981263Y-125715793D01*
X160981264Y-125715792D01*
X160981269Y-125715792D01*
X161172880Y-125657667D01*
X161349469Y-125563278D01*
X161504252Y-125436252D01*
X161631278Y-125281469D01*
X161725667Y-125104880D01*
X161783792Y-124913269D01*
X161798478Y-124764160D01*
X161803418Y-124714003D01*
X161803418Y-124713996D01*
X161783793Y-124514738D01*
X161783793Y-124514736D01*
X161783792Y-124514733D01*
X161783792Y-124514731D01*
X161725667Y-124323120D01*
X161631278Y-124146531D01*
X161504252Y-123991748D01*
X161349469Y-123864722D01*
X161349467Y-123864721D01*
X161349466Y-123864720D01*
X161172883Y-123770334D01*
X161172877Y-123770332D01*
X160981262Y-123712206D01*
X160782003Y-123692582D01*
X160781997Y-123692582D01*
X160582738Y-123712206D01*
X160582736Y-123712206D01*
X160496318Y-123738421D01*
X160453210Y-123751498D01*
X160382217Y-123752131D01*
X160327540Y-123720018D01*
X154155982Y-117548459D01*
X154121956Y-117486147D01*
X154124503Y-117422788D01*
X154163791Y-117293272D01*
X154163793Y-117293261D01*
X154183418Y-117094003D01*
X154680582Y-117094003D01*
X154700206Y-117293261D01*
X154700206Y-117293263D01*
X154758332Y-117484877D01*
X154758334Y-117484883D01*
X154842221Y-117641823D01*
X154852722Y-117661469D01*
X154979748Y-117816252D01*
X155134531Y-117943278D01*
X155193394Y-117974741D01*
X155310530Y-118037352D01*
X155311120Y-118037667D01*
X155502731Y-118095792D01*
X155502735Y-118095792D01*
X155502737Y-118095793D01*
X155701997Y-118115418D01*
X155702000Y-118115418D01*
X155702003Y-118115418D01*
X155901261Y-118095793D01*
X155901263Y-118095793D01*
X155901264Y-118095792D01*
X155901269Y-118095792D01*
X156092880Y-118037667D01*
X156269469Y-117943278D01*
X156424252Y-117816252D01*
X156551278Y-117661469D01*
X156645667Y-117484880D01*
X156703792Y-117293269D01*
X156708076Y-117249775D01*
X156723418Y-117094003D01*
X157220582Y-117094003D01*
X157240206Y-117293261D01*
X157240206Y-117293263D01*
X157298332Y-117484877D01*
X157298334Y-117484883D01*
X157382221Y-117641823D01*
X157392722Y-117661469D01*
X157519748Y-117816252D01*
X157674531Y-117943278D01*
X157793896Y-118007080D01*
X157844544Y-118056832D01*
X157860500Y-118118202D01*
X157860500Y-119430223D01*
X157860499Y-119430223D01*
X157886500Y-119527258D01*
X157936721Y-119614243D01*
X157936729Y-119614253D01*
X159968724Y-121646247D01*
X160039753Y-121717276D01*
X160039754Y-121717277D01*
X160039756Y-121717278D01*
X160126741Y-121767499D01*
X160126743Y-121767499D01*
X160126746Y-121767501D01*
X160223775Y-121793500D01*
X160627761Y-121793500D01*
X160660372Y-121797793D01*
X160666744Y-121799500D01*
X160666747Y-121799502D01*
X160763775Y-121825500D01*
X160864225Y-121825500D01*
X164681501Y-121825500D01*
X164749622Y-121845502D01*
X164796115Y-121899158D01*
X164807501Y-121951500D01*
X164807501Y-122269072D01*
X164822265Y-122343300D01*
X164885411Y-122437803D01*
X164881714Y-122440272D01*
X164904206Y-122481461D01*
X164899141Y-122552276D01*
X164870188Y-122597332D01*
X164862337Y-122605183D01*
X164731866Y-122791516D01*
X164635734Y-122997671D01*
X164635732Y-122997676D01*
X164576859Y-123217397D01*
X164557034Y-123444000D01*
X164576859Y-123670602D01*
X164635732Y-123890323D01*
X164635734Y-123890328D01*
X164731865Y-124096482D01*
X164782973Y-124169471D01*
X164782975Y-124169471D01*
X165462000Y-123490446D01*
X165462000Y-123496661D01*
X165489259Y-123598394D01*
X165541920Y-123689606D01*
X165616394Y-123764080D01*
X165707606Y-123816741D01*
X165809339Y-123844000D01*
X165815553Y-123844000D01*
X165136527Y-124523024D01*
X165136527Y-124523025D01*
X165209518Y-124574134D01*
X165209517Y-124574134D01*
X165415671Y-124670265D01*
X165415676Y-124670267D01*
X165635397Y-124729140D01*
X165862000Y-124748965D01*
X166088602Y-124729140D01*
X166308323Y-124670267D01*
X166308328Y-124670265D01*
X166514482Y-124574134D01*
X166514483Y-124574133D01*
X166587471Y-124523025D01*
X166587471Y-124523023D01*
X165908448Y-123844000D01*
X165914661Y-123844000D01*
X166016394Y-123816741D01*
X166107606Y-123764080D01*
X166182080Y-123689606D01*
X166234741Y-123598394D01*
X166262000Y-123496661D01*
X166262000Y-123490448D01*
X166941023Y-124169471D01*
X166941025Y-124169471D01*
X166992133Y-124096483D01*
X166992134Y-124096482D01*
X167088265Y-123890328D01*
X167088267Y-123890323D01*
X167147140Y-123670602D01*
X167166965Y-123444000D01*
X173447034Y-123444000D01*
X173466859Y-123670602D01*
X173525732Y-123890323D01*
X173525734Y-123890328D01*
X173621865Y-124096482D01*
X173672974Y-124169471D01*
X174352000Y-123490445D01*
X174352000Y-123496661D01*
X174379259Y-123598394D01*
X174431920Y-123689606D01*
X174506394Y-123764080D01*
X174597606Y-123816741D01*
X174699339Y-123844000D01*
X174705553Y-123844000D01*
X174026527Y-124523024D01*
X174026527Y-124523025D01*
X174099518Y-124574134D01*
X174099517Y-124574134D01*
X174305671Y-124670265D01*
X174305676Y-124670267D01*
X174525397Y-124729140D01*
X174752000Y-124748965D01*
X174978602Y-124729140D01*
X175198323Y-124670267D01*
X175198328Y-124670265D01*
X175404482Y-124574134D01*
X175404483Y-124574133D01*
X175477471Y-124523025D01*
X175477471Y-124523023D01*
X174798448Y-123844000D01*
X174804661Y-123844000D01*
X174906394Y-123816741D01*
X174997606Y-123764080D01*
X175072080Y-123689606D01*
X175124741Y-123598394D01*
X175152000Y-123496661D01*
X175152000Y-123490448D01*
X175831023Y-124169471D01*
X175831025Y-124169471D01*
X175882133Y-124096483D01*
X175882134Y-124096482D01*
X175978265Y-123890328D01*
X175978267Y-123890323D01*
X176037140Y-123670602D01*
X176056965Y-123444000D01*
X176037140Y-123217397D01*
X175978267Y-122997676D01*
X175978265Y-122997671D01*
X175882134Y-122791517D01*
X175831024Y-122718527D01*
X175152000Y-123397551D01*
X175152000Y-123391339D01*
X175124741Y-123289606D01*
X175072080Y-123198394D01*
X174997606Y-123123920D01*
X174906394Y-123071259D01*
X174804661Y-123044000D01*
X174798447Y-123044000D01*
X175477471Y-122364974D01*
X175477471Y-122364973D01*
X175404481Y-122313865D01*
X175404482Y-122313865D01*
X175243276Y-122238694D01*
X175189991Y-122191777D01*
X175170530Y-122123499D01*
X175191072Y-122055540D01*
X175245095Y-122009474D01*
X175296525Y-121998499D01*
X175577066Y-121998499D01*
X175577069Y-121998498D01*
X175577073Y-121998498D01*
X175626326Y-121988701D01*
X175651301Y-121983734D01*
X175735484Y-121927484D01*
X175791734Y-121843301D01*
X175806500Y-121769067D01*
X175806499Y-120118934D01*
X175806498Y-120118930D01*
X175806498Y-120118926D01*
X175791734Y-120044699D01*
X175735483Y-119960515D01*
X175651302Y-119904266D01*
X175570995Y-119888292D01*
X175571436Y-119886071D01*
X175515013Y-119863264D01*
X175474023Y-119805295D01*
X175470881Y-119734368D01*
X175504133Y-119675388D01*
X178867276Y-116312247D01*
X178917502Y-116225253D01*
X178943501Y-116128225D01*
X178943501Y-116027775D01*
X178943501Y-116020058D01*
X178943500Y-116020040D01*
X178943500Y-115621289D01*
X178963502Y-115553168D01*
X179010102Y-115510168D01*
X179150683Y-115435027D01*
X179311252Y-115303252D01*
X179443027Y-115142683D01*
X179540945Y-114959492D01*
X179601242Y-114760718D01*
X179607608Y-114696091D01*
X179621602Y-114554003D01*
X179621602Y-114553996D01*
X179601243Y-114347288D01*
X179601242Y-114347286D01*
X179601242Y-114347282D01*
X179540945Y-114148508D01*
X179443027Y-113965317D01*
X179443025Y-113965313D01*
X179311252Y-113804747D01*
X179150686Y-113672975D01*
X179150686Y-113672974D01*
X178967492Y-113575055D01*
X178768711Y-113514756D01*
X178562003Y-113494398D01*
X178561997Y-113494398D01*
X178355288Y-113514756D01*
X178202743Y-113561030D01*
X178131749Y-113561663D01*
X178077073Y-113529550D01*
X175776450Y-111228927D01*
X175742424Y-111166615D01*
X175744970Y-111103257D01*
X175756854Y-111064080D01*
X175791242Y-110950718D01*
X175792640Y-110936529D01*
X175811602Y-110744003D01*
X175811602Y-110743996D01*
X175791243Y-110537288D01*
X175791242Y-110537286D01*
X175791242Y-110537282D01*
X175778113Y-110494000D01*
X177283127Y-110494000D01*
X178246314Y-110494000D01*
X178241920Y-110498394D01*
X178189259Y-110589606D01*
X178162000Y-110691339D01*
X178162000Y-110796661D01*
X178189259Y-110898394D01*
X178241920Y-110989606D01*
X178246314Y-110994000D01*
X177283128Y-110994000D01*
X177335732Y-111190322D01*
X177335734Y-111190328D01*
X177431866Y-111396483D01*
X177562335Y-111582812D01*
X177562340Y-111582818D01*
X177723181Y-111743659D01*
X177723187Y-111743664D01*
X177909516Y-111874133D01*
X178115671Y-111970265D01*
X178115677Y-111970267D01*
X178312000Y-112022871D01*
X178312000Y-111059686D01*
X178316394Y-111064080D01*
X178407606Y-111116741D01*
X178509339Y-111144000D01*
X178614661Y-111144000D01*
X178716394Y-111116741D01*
X178807606Y-111064080D01*
X178812000Y-111059686D01*
X178812000Y-112022871D01*
X179008322Y-111970267D01*
X179008328Y-111970265D01*
X179214483Y-111874133D01*
X179400812Y-111743664D01*
X179400818Y-111743659D01*
X179561659Y-111582818D01*
X179561664Y-111582812D01*
X179692133Y-111396483D01*
X179788265Y-111190328D01*
X179788267Y-111190322D01*
X179840872Y-110994000D01*
X178877686Y-110994000D01*
X178882080Y-110989606D01*
X178934741Y-110898394D01*
X178962000Y-110796661D01*
X178962000Y-110691339D01*
X178934741Y-110589606D01*
X178882080Y-110498394D01*
X178877686Y-110494000D01*
X179840872Y-110494000D01*
X179788267Y-110297677D01*
X179788265Y-110297671D01*
X179692133Y-110091516D01*
X179561664Y-109905187D01*
X179561659Y-109905181D01*
X179400818Y-109744340D01*
X179400812Y-109744335D01*
X179214483Y-109613866D01*
X179008328Y-109517734D01*
X179008325Y-109517733D01*
X178812000Y-109465127D01*
X178812000Y-110428314D01*
X178807606Y-110423920D01*
X178716394Y-110371259D01*
X178614661Y-110344000D01*
X178509339Y-110344000D01*
X178407606Y-110371259D01*
X178316394Y-110423920D01*
X178312000Y-110428314D01*
X178312000Y-109465127D01*
X178311999Y-109465127D01*
X178115674Y-109517733D01*
X178115671Y-109517734D01*
X177909516Y-109613866D01*
X177723187Y-109744335D01*
X177723181Y-109744340D01*
X177562340Y-109905181D01*
X177562335Y-109905187D01*
X177431866Y-110091516D01*
X177335734Y-110297671D01*
X177335732Y-110297677D01*
X177283127Y-110494000D01*
X175778113Y-110494000D01*
X175730945Y-110338508D01*
X175633027Y-110155317D01*
X175633025Y-110155313D01*
X175501252Y-109994747D01*
X175340688Y-109862976D01*
X175340684Y-109862973D01*
X175340683Y-109862973D01*
X175200103Y-109787831D01*
X175149455Y-109738078D01*
X175133500Y-109676709D01*
X175133500Y-108668213D01*
X175153502Y-108600092D01*
X175170405Y-108579118D01*
X178867270Y-104882253D01*
X178867276Y-104882247D01*
X178917502Y-104795253D01*
X178943501Y-104698225D01*
X178943501Y-104597775D01*
X178943501Y-104590058D01*
X178943500Y-104590040D01*
X178943500Y-104191289D01*
X178963502Y-104123168D01*
X179010102Y-104080168D01*
X179150683Y-104005027D01*
X179311252Y-103873252D01*
X179443027Y-103712683D01*
X179540945Y-103529492D01*
X179601242Y-103330718D01*
X179606176Y-103280630D01*
X179621602Y-103124003D01*
X179621602Y-103123996D01*
X179601243Y-102917288D01*
X179601242Y-102917286D01*
X179601242Y-102917282D01*
X179540945Y-102718508D01*
X179443027Y-102535317D01*
X179443025Y-102535313D01*
X179311252Y-102374747D01*
X179150686Y-102242975D01*
X179150686Y-102242974D01*
X178967492Y-102145055D01*
X178768711Y-102084756D01*
X178562003Y-102064398D01*
X178561997Y-102064398D01*
X178355288Y-102084756D01*
X178156507Y-102145055D01*
X177973313Y-102242974D01*
X177973313Y-102242975D01*
X177812747Y-102374747D01*
X177680975Y-102535313D01*
X177680974Y-102535313D01*
X177583055Y-102718507D01*
X177522756Y-102917288D01*
X177502398Y-103123996D01*
X177502398Y-103124003D01*
X177522756Y-103330711D01*
X177583055Y-103529492D01*
X177680974Y-103712686D01*
X177812747Y-103873252D01*
X177973313Y-104005024D01*
X177973317Y-104005027D01*
X178113896Y-104080168D01*
X178164544Y-104129919D01*
X178180500Y-104191289D01*
X178180500Y-104437787D01*
X178160498Y-104505908D01*
X178143595Y-104526882D01*
X174517753Y-108152724D01*
X174486695Y-108183782D01*
X174446725Y-108223751D01*
X174446721Y-108223756D01*
X174396500Y-108310741D01*
X174370500Y-108407776D01*
X174370500Y-109676709D01*
X174350498Y-109744830D01*
X174303897Y-109787831D01*
X174163311Y-109862976D01*
X174002747Y-109994747D01*
X173870975Y-110155313D01*
X173870974Y-110155313D01*
X173773055Y-110338507D01*
X173712756Y-110537288D01*
X173692398Y-110743996D01*
X173692398Y-110744003D01*
X173712756Y-110950711D01*
X173712757Y-110950717D01*
X173712758Y-110950718D01*
X173725887Y-110994000D01*
X173773055Y-111149492D01*
X173870974Y-111332686D01*
X174002747Y-111493252D01*
X174163313Y-111625024D01*
X174163313Y-111625025D01*
X174163317Y-111625027D01*
X174346508Y-111722945D01*
X174545282Y-111783242D01*
X174545286Y-111783242D01*
X174545288Y-111783243D01*
X174751997Y-111803602D01*
X174752000Y-111803602D01*
X174752003Y-111803602D01*
X174958711Y-111783243D01*
X174958712Y-111783242D01*
X174958718Y-111783242D01*
X175111257Y-111736969D01*
X175182251Y-111736337D01*
X175236927Y-111768450D01*
X177537550Y-114069073D01*
X177571576Y-114131385D01*
X177569030Y-114194743D01*
X177522756Y-114347288D01*
X177502398Y-114553996D01*
X177502398Y-114554003D01*
X177522756Y-114760711D01*
X177522757Y-114760717D01*
X177522758Y-114760718D01*
X177578953Y-114945971D01*
X177583055Y-114959492D01*
X177680974Y-115142686D01*
X177812747Y-115303252D01*
X177973313Y-115435024D01*
X177973317Y-115435027D01*
X178113896Y-115510168D01*
X178164544Y-115559919D01*
X178180500Y-115621289D01*
X178180500Y-115867787D01*
X178160498Y-115935908D01*
X178143595Y-115956882D01*
X174517753Y-119582724D01*
X174486234Y-119614243D01*
X174446725Y-119653751D01*
X174446721Y-119653756D01*
X174396499Y-119740744D01*
X174381663Y-119796112D01*
X174344711Y-119856735D01*
X174280851Y-119887756D01*
X174259957Y-119889500D01*
X173926936Y-119889500D01*
X173926926Y-119889501D01*
X173852699Y-119904265D01*
X173768515Y-119960516D01*
X173712266Y-120044697D01*
X173697500Y-120118930D01*
X173697500Y-121769063D01*
X173697501Y-121769073D01*
X173712265Y-121843300D01*
X173768516Y-121927484D01*
X173852697Y-121983733D01*
X173852699Y-121983734D01*
X173926933Y-121998500D01*
X174207474Y-121998499D01*
X174275592Y-122018501D01*
X174322085Y-122072156D01*
X174332190Y-122142430D01*
X174302697Y-122207011D01*
X174260722Y-122238694D01*
X174099513Y-122313867D01*
X174026527Y-122364972D01*
X174026527Y-122364975D01*
X174705552Y-123044000D01*
X174699339Y-123044000D01*
X174597606Y-123071259D01*
X174506394Y-123123920D01*
X174431920Y-123198394D01*
X174379259Y-123289606D01*
X174352000Y-123391339D01*
X174352000Y-123397552D01*
X173672975Y-122718527D01*
X173672972Y-122718527D01*
X173621867Y-122791513D01*
X173525734Y-122997671D01*
X173525732Y-122997676D01*
X173466859Y-123217397D01*
X173447034Y-123444000D01*
X167166965Y-123444000D01*
X167147140Y-123217397D01*
X167088267Y-122997676D01*
X167088265Y-122997671D01*
X166992133Y-122791516D01*
X166861664Y-122605187D01*
X166861659Y-122605181D01*
X166853818Y-122597340D01*
X166819792Y-122535028D01*
X166824857Y-122464213D01*
X166840870Y-122439326D01*
X166838590Y-122437802D01*
X166901733Y-122343302D01*
X166901732Y-122343302D01*
X166901734Y-122343301D01*
X166916500Y-122269067D01*
X166916499Y-120618934D01*
X166916498Y-120618930D01*
X166916498Y-120618926D01*
X166901734Y-120544699D01*
X166859238Y-120481100D01*
X166845484Y-120460516D01*
X166845483Y-120460515D01*
X166761302Y-120404266D01*
X166687067Y-120389500D01*
X165036936Y-120389500D01*
X165036926Y-120389501D01*
X164962699Y-120404265D01*
X164878515Y-120460516D01*
X164822266Y-120544697D01*
X164807500Y-120618930D01*
X164807500Y-120936500D01*
X164787498Y-121004621D01*
X164733842Y-121051114D01*
X164681500Y-121062500D01*
X160968237Y-121062500D01*
X160935625Y-121058207D01*
X160929256Y-121056500D01*
X160929254Y-121056499D01*
X160832225Y-121030500D01*
X160832222Y-121030500D01*
X160484213Y-121030500D01*
X160416092Y-121010498D01*
X160395118Y-120993595D01*
X158660405Y-119258882D01*
X158626379Y-119196570D01*
X158623500Y-119169787D01*
X158623500Y-118118202D01*
X158643502Y-118050081D01*
X158690104Y-118007080D01*
X158809469Y-117943278D01*
X158964252Y-117816252D01*
X159091278Y-117661469D01*
X159185667Y-117484880D01*
X159243792Y-117293269D01*
X159248076Y-117249775D01*
X159263418Y-117094003D01*
X159760582Y-117094003D01*
X159780206Y-117293261D01*
X159780206Y-117293263D01*
X159838332Y-117484877D01*
X159838334Y-117484883D01*
X159922221Y-117641823D01*
X159932722Y-117661469D01*
X160059748Y-117816252D01*
X160214531Y-117943278D01*
X160273394Y-117974741D01*
X160390530Y-118037352D01*
X160391120Y-118037667D01*
X160582731Y-118095792D01*
X160582735Y-118095792D01*
X160582737Y-118095793D01*
X160781997Y-118115418D01*
X160782000Y-118115418D01*
X160782003Y-118115418D01*
X160981261Y-118095793D01*
X160981263Y-118095793D01*
X160981264Y-118095792D01*
X160981269Y-118095792D01*
X161172880Y-118037667D01*
X161349469Y-117943278D01*
X161504252Y-117816252D01*
X161631278Y-117661469D01*
X161725667Y-117484880D01*
X161768403Y-117344000D01*
X164612000Y-117344000D01*
X164612000Y-117641840D01*
X164618400Y-117701371D01*
X164668647Y-117836089D01*
X164754810Y-117951189D01*
X164869910Y-118037352D01*
X165004628Y-118087599D01*
X165064159Y-118093999D01*
X165064176Y-118094000D01*
X165612000Y-118094000D01*
X165612000Y-117344000D01*
X164612000Y-117344000D01*
X161768403Y-117344000D01*
X161783792Y-117293269D01*
X161788076Y-117249775D01*
X161803418Y-117094003D01*
X161803418Y-117093996D01*
X161783793Y-116894738D01*
X161783793Y-116894736D01*
X161783792Y-116894733D01*
X161783792Y-116894731D01*
X161725667Y-116703120D01*
X161631278Y-116526531D01*
X161504252Y-116371748D01*
X161349469Y-116244722D01*
X161349467Y-116244721D01*
X161349466Y-116244720D01*
X161172883Y-116150334D01*
X161172877Y-116150332D01*
X161069171Y-116118873D01*
X160981269Y-116092208D01*
X160981268Y-116092207D01*
X160981262Y-116092206D01*
X160782003Y-116072582D01*
X160781997Y-116072582D01*
X160582738Y-116092206D01*
X160582736Y-116092206D01*
X160391122Y-116150332D01*
X160391116Y-116150334D01*
X160214533Y-116244720D01*
X160059748Y-116371748D01*
X159932720Y-116526533D01*
X159838334Y-116703116D01*
X159838332Y-116703122D01*
X159780206Y-116894736D01*
X159780206Y-116894738D01*
X159760582Y-117093996D01*
X159760582Y-117094003D01*
X159263418Y-117094003D01*
X159263418Y-117093996D01*
X159243793Y-116894738D01*
X159243793Y-116894736D01*
X159243792Y-116894733D01*
X159243792Y-116894731D01*
X159185667Y-116703120D01*
X159091278Y-116526531D01*
X158964252Y-116371748D01*
X158809469Y-116244722D01*
X158809467Y-116244721D01*
X158809466Y-116244720D01*
X158632883Y-116150334D01*
X158632877Y-116150332D01*
X158529171Y-116118873D01*
X158441269Y-116092208D01*
X158441268Y-116092207D01*
X158441262Y-116092206D01*
X158242003Y-116072582D01*
X158241997Y-116072582D01*
X158042738Y-116092206D01*
X158042736Y-116092206D01*
X157851122Y-116150332D01*
X157851116Y-116150334D01*
X157674533Y-116244720D01*
X157519748Y-116371748D01*
X157392720Y-116526533D01*
X157298334Y-116703116D01*
X157298332Y-116703122D01*
X157240206Y-116894736D01*
X157240206Y-116894738D01*
X157220582Y-117093996D01*
X157220582Y-117094003D01*
X156723418Y-117094003D01*
X156723418Y-117093996D01*
X156703793Y-116894738D01*
X156703793Y-116894736D01*
X156703792Y-116894733D01*
X156703792Y-116894731D01*
X156645667Y-116703120D01*
X156551278Y-116526531D01*
X156424252Y-116371748D01*
X156269469Y-116244722D01*
X156182590Y-116198284D01*
X156150103Y-116180919D01*
X156099455Y-116131166D01*
X156083500Y-116069797D01*
X156083500Y-114764212D01*
X156103502Y-114696091D01*
X156120400Y-114675122D01*
X159027074Y-111768447D01*
X159089384Y-111734423D01*
X159152738Y-111736968D01*
X159305282Y-111783242D01*
X159305288Y-111783242D01*
X159305290Y-111783243D01*
X159511997Y-111803602D01*
X159512000Y-111803602D01*
X159512003Y-111803602D01*
X159718711Y-111783243D01*
X159718712Y-111783242D01*
X159718718Y-111783242D01*
X159917492Y-111722945D01*
X160100683Y-111625027D01*
X160100684Y-111625025D01*
X160100686Y-111625025D01*
X160100686Y-111625024D01*
X160261252Y-111493252D01*
X160393027Y-111332683D01*
X160468168Y-111192103D01*
X160517920Y-111141456D01*
X160579290Y-111125500D01*
X162254710Y-111125500D01*
X162322831Y-111145502D01*
X162365831Y-111192103D01*
X162374595Y-111208499D01*
X162440974Y-111332686D01*
X162572747Y-111493252D01*
X162733313Y-111625024D01*
X162733313Y-111625025D01*
X162733317Y-111625027D01*
X162916508Y-111722945D01*
X163115282Y-111783242D01*
X163115286Y-111783242D01*
X163115288Y-111783243D01*
X163321997Y-111803602D01*
X163322000Y-111803602D01*
X163322003Y-111803602D01*
X163528711Y-111783243D01*
X163528712Y-111783242D01*
X163528718Y-111783242D01*
X163727492Y-111722945D01*
X163910683Y-111625027D01*
X163910684Y-111625025D01*
X163910686Y-111625025D01*
X163910686Y-111625024D01*
X164071252Y-111493252D01*
X164203027Y-111332683D01*
X164300945Y-111149492D01*
X164361242Y-110950718D01*
X164362640Y-110936529D01*
X164381602Y-110744003D01*
X164381602Y-110743996D01*
X164361243Y-110537288D01*
X164361242Y-110537286D01*
X164361242Y-110537282D01*
X164300945Y-110338508D01*
X164203027Y-110155317D01*
X164203025Y-110155313D01*
X164071252Y-109994747D01*
X163910686Y-109862975D01*
X163910686Y-109862974D01*
X163727492Y-109765055D01*
X163703499Y-109757777D01*
X163528718Y-109704758D01*
X163528717Y-109704757D01*
X163528711Y-109704756D01*
X163322003Y-109684398D01*
X163321997Y-109684398D01*
X163115288Y-109704756D01*
X162916507Y-109765055D01*
X162733313Y-109862974D01*
X162733313Y-109862975D01*
X162572747Y-109994747D01*
X162440975Y-110155313D01*
X162440974Y-110155313D01*
X162365832Y-110295896D01*
X162316080Y-110346544D01*
X162254710Y-110362500D01*
X160579290Y-110362500D01*
X160511169Y-110342498D01*
X160468168Y-110295896D01*
X160393025Y-110155313D01*
X160261252Y-109994747D01*
X160100686Y-109862975D01*
X160100686Y-109862974D01*
X159917492Y-109765055D01*
X159893499Y-109757777D01*
X159718718Y-109704758D01*
X159718717Y-109704757D01*
X159718711Y-109704756D01*
X159512003Y-109684398D01*
X159511997Y-109684398D01*
X159305288Y-109704756D01*
X159106507Y-109765055D01*
X158923313Y-109862974D01*
X158923313Y-109862975D01*
X158762747Y-109994747D01*
X158630975Y-110155313D01*
X158630974Y-110155313D01*
X158533055Y-110338507D01*
X158472756Y-110537288D01*
X158452398Y-110743996D01*
X158452398Y-110744003D01*
X158472756Y-110950711D01*
X158519029Y-111103256D01*
X158519662Y-111174250D01*
X158487549Y-111228926D01*
X156222079Y-113494398D01*
X155467753Y-114248724D01*
X155432239Y-114284238D01*
X155396725Y-114319751D01*
X155396721Y-114319756D01*
X155346500Y-114406741D01*
X155320500Y-114503776D01*
X155320500Y-116069797D01*
X155300498Y-116137918D01*
X155253897Y-116180919D01*
X155207910Y-116205500D01*
X155134531Y-116244722D01*
X155061123Y-116304966D01*
X154979748Y-116371748D01*
X154852720Y-116526533D01*
X154758334Y-116703116D01*
X154758332Y-116703122D01*
X154700206Y-116894736D01*
X154700206Y-116894738D01*
X154680582Y-117093996D01*
X154680582Y-117094003D01*
X154183418Y-117094003D01*
X154183418Y-117093996D01*
X154163793Y-116894738D01*
X154163793Y-116894736D01*
X154163792Y-116894733D01*
X154163792Y-116894731D01*
X154105667Y-116703120D01*
X154011278Y-116526531D01*
X153884252Y-116371748D01*
X153729469Y-116244722D01*
X153729467Y-116244721D01*
X153729466Y-116244720D01*
X153552883Y-116150334D01*
X153552877Y-116150332D01*
X153449171Y-116118873D01*
X153361269Y-116092208D01*
X153361268Y-116092207D01*
X153361262Y-116092206D01*
X153162003Y-116072582D01*
X153161997Y-116072582D01*
X152962738Y-116092206D01*
X152962733Y-116092207D01*
X152833210Y-116131497D01*
X152762216Y-116132130D01*
X152707540Y-116100017D01*
X151802405Y-115194882D01*
X151768379Y-115132570D01*
X151765500Y-115105787D01*
X151765500Y-107906212D01*
X151785502Y-107838091D01*
X151802405Y-107817117D01*
X152307117Y-107312405D01*
X152369429Y-107278379D01*
X152396212Y-107275500D01*
X153198385Y-107275500D01*
X153266506Y-107295502D01*
X153311173Y-107345334D01*
X153403526Y-107530804D01*
X153403527Y-107530805D01*
X153403528Y-107530807D01*
X153538048Y-107708942D01*
X153703014Y-107859328D01*
X153703016Y-107859329D01*
X153703017Y-107859330D01*
X153859750Y-107956374D01*
X153907136Y-108009239D01*
X153918419Y-108079333D01*
X153890016Y-108144400D01*
X153830943Y-108183782D01*
X153793418Y-108189500D01*
X153456936Y-108189500D01*
X153456926Y-108189501D01*
X153382699Y-108204265D01*
X153298515Y-108260516D01*
X153242266Y-108344697D01*
X153227500Y-108418930D01*
X153227500Y-110369063D01*
X153227501Y-110369073D01*
X153242265Y-110443300D01*
X153298516Y-110527484D01*
X153382697Y-110583733D01*
X153382699Y-110583734D01*
X153456933Y-110598500D01*
X155407066Y-110598499D01*
X155407069Y-110598498D01*
X155407073Y-110598498D01*
X155456326Y-110588701D01*
X155481301Y-110583734D01*
X155565484Y-110527484D01*
X155621734Y-110443301D01*
X155636500Y-110369067D01*
X155636499Y-108418934D01*
X155636498Y-108418930D01*
X155636498Y-108418926D01*
X155621734Y-108344699D01*
X155565483Y-108260515D01*
X155481302Y-108204266D01*
X155407069Y-108189500D01*
X155070582Y-108189500D01*
X155002461Y-108169498D01*
X154955968Y-108115842D01*
X154945864Y-108045568D01*
X154975358Y-107980988D01*
X155004246Y-107956376D01*
X155160983Y-107859330D01*
X155325950Y-107708943D01*
X155423649Y-107579568D01*
X155480662Y-107537261D01*
X155524199Y-107529500D01*
X159449409Y-107529500D01*
X159574591Y-107529500D01*
X166370500Y-107529500D01*
X166438621Y-107549502D01*
X166485114Y-107603158D01*
X166496500Y-107655500D01*
X166496500Y-109841800D01*
X166476498Y-109909921D01*
X166450434Y-109939199D01*
X166382745Y-109994750D01*
X166250975Y-110155313D01*
X166250974Y-110155313D01*
X166153055Y-110338507D01*
X166092756Y-110537288D01*
X166072398Y-110743996D01*
X166072398Y-110744003D01*
X166092756Y-110950711D01*
X166092757Y-110950717D01*
X166092758Y-110950718D01*
X166105887Y-110994000D01*
X166153055Y-111149492D01*
X166250974Y-111332686D01*
X166382747Y-111493252D01*
X166543313Y-111625024D01*
X166543313Y-111625025D01*
X166543317Y-111625027D01*
X166726508Y-111722945D01*
X166925282Y-111783242D01*
X166925286Y-111783242D01*
X166925288Y-111783243D01*
X167131997Y-111803602D01*
X167132000Y-111803602D01*
X167132003Y-111803602D01*
X167338711Y-111783243D01*
X167338712Y-111783242D01*
X167338718Y-111783242D01*
X167537492Y-111722945D01*
X167720683Y-111625027D01*
X167720684Y-111625025D01*
X167720686Y-111625025D01*
X167720686Y-111625024D01*
X167881252Y-111493252D01*
X168013027Y-111332683D01*
X168110945Y-111149492D01*
X168171242Y-110950718D01*
X168172640Y-110936529D01*
X168191602Y-110744003D01*
X168191602Y-110743996D01*
X168171243Y-110537288D01*
X168171242Y-110537286D01*
X168171242Y-110537282D01*
X168110945Y-110338508D01*
X168013027Y-110155317D01*
X168013025Y-110155313D01*
X167881254Y-109994750D01*
X167881250Y-109994747D01*
X167851173Y-109970063D01*
X167813566Y-109939199D01*
X167773597Y-109880522D01*
X167767500Y-109841800D01*
X167767500Y-107655500D01*
X167787502Y-107587379D01*
X167841158Y-107540886D01*
X167893500Y-107529500D01*
X169316577Y-107529500D01*
X169384698Y-107549502D01*
X169405672Y-107566405D01*
X170269595Y-108430328D01*
X170303621Y-108492640D01*
X170306500Y-108519423D01*
X170306500Y-109841800D01*
X170286498Y-109909921D01*
X170260434Y-109939199D01*
X170192745Y-109994750D01*
X170060975Y-110155313D01*
X170060974Y-110155313D01*
X169963055Y-110338507D01*
X169902756Y-110537288D01*
X169882398Y-110743996D01*
X169882398Y-110744004D01*
X169889414Y-110815248D01*
X169876185Y-110885001D01*
X169827344Y-110936529D01*
X169758399Y-110953471D01*
X169705468Y-110939165D01*
X169645007Y-110907433D01*
X169645006Y-110907432D01*
X169645005Y-110907432D01*
X169495165Y-110870500D01*
X169495164Y-110870500D01*
X169340836Y-110870500D01*
X169340834Y-110870500D01*
X169190994Y-110907432D01*
X169054344Y-110979151D01*
X169054342Y-110979152D01*
X168938827Y-111081490D01*
X168851160Y-111208496D01*
X168796432Y-111352800D01*
X168777832Y-111505996D01*
X168777832Y-111506003D01*
X168796432Y-111659199D01*
X168851160Y-111803503D01*
X168884518Y-111851830D01*
X168938827Y-111930510D01*
X168938828Y-111930511D01*
X168938829Y-111930512D01*
X168938832Y-111930515D01*
X168994052Y-111979435D01*
X169031778Y-112039579D01*
X169036500Y-112073748D01*
X169036500Y-112311787D01*
X169016498Y-112379908D01*
X168999595Y-112400882D01*
X167264882Y-114135595D01*
X167202570Y-114169621D01*
X167175787Y-114172500D01*
X166831868Y-114172500D01*
X166763747Y-114152498D01*
X166727102Y-114116501D01*
X166698058Y-114073033D01*
X166698055Y-114073029D01*
X166592973Y-113967947D01*
X166592967Y-113967942D01*
X166592966Y-113967941D01*
X166469390Y-113885371D01*
X166332080Y-113828495D01*
X166186314Y-113799500D01*
X166186312Y-113799500D01*
X165537688Y-113799500D01*
X165537685Y-113799500D01*
X165391919Y-113828495D01*
X165391914Y-113828497D01*
X165254610Y-113885371D01*
X165131032Y-113967942D01*
X165131026Y-113967947D01*
X165025947Y-114073026D01*
X165025942Y-114073032D01*
X164943371Y-114196610D01*
X164886497Y-114333914D01*
X164886495Y-114333919D01*
X164857500Y-114479685D01*
X164857500Y-114479688D01*
X164857500Y-114628312D01*
X164886495Y-114774080D01*
X164943371Y-114911390D01*
X164984140Y-114972405D01*
X165025942Y-115034967D01*
X165025947Y-115034973D01*
X165090879Y-115099905D01*
X165124905Y-115162217D01*
X165119840Y-115233032D01*
X165090879Y-115278095D01*
X165025947Y-115343026D01*
X165025942Y-115343032D01*
X164943371Y-115466610D01*
X164886497Y-115603914D01*
X164886495Y-115603919D01*
X164857500Y-115749685D01*
X164857500Y-115749688D01*
X164857500Y-115898312D01*
X164886495Y-116044080D01*
X164886496Y-116044082D01*
X164887307Y-116048159D01*
X164880979Y-116118873D01*
X164839238Y-116173608D01*
X164754811Y-116236810D01*
X164668647Y-116351910D01*
X164618400Y-116486628D01*
X164612000Y-116546159D01*
X164612000Y-116844000D01*
X165746943Y-116844000D01*
X165706225Y-116860866D01*
X165628866Y-116938225D01*
X165587000Y-117039299D01*
X165587000Y-117148701D01*
X165628866Y-117249775D01*
X165706225Y-117327134D01*
X165807299Y-117369000D01*
X165916701Y-117369000D01*
X165977057Y-117344000D01*
X166112000Y-117344000D01*
X166112000Y-118094000D01*
X166659824Y-118094000D01*
X166659840Y-118093999D01*
X166719371Y-118087599D01*
X166854089Y-118037352D01*
X166969189Y-117951189D01*
X167055352Y-117836089D01*
X167105599Y-117701371D01*
X167111999Y-117641840D01*
X167112000Y-117641823D01*
X167112000Y-117344000D01*
X166112000Y-117344000D01*
X165977057Y-117344000D01*
X166017775Y-117327134D01*
X166095134Y-117249775D01*
X166137000Y-117148701D01*
X166137000Y-117039299D01*
X166095134Y-116938225D01*
X166017775Y-116860866D01*
X165977057Y-116844000D01*
X167112000Y-116844000D01*
X167112000Y-116546176D01*
X167111999Y-116546159D01*
X167105599Y-116486627D01*
X167064163Y-116375532D01*
X167059099Y-116304716D01*
X167093124Y-116242404D01*
X167155436Y-116208379D01*
X167182219Y-116205500D01*
X167944223Y-116205500D01*
X167944225Y-116205500D01*
X168041254Y-116179501D01*
X168041257Y-116179499D01*
X168041258Y-116179499D01*
X168113278Y-116137918D01*
X168128247Y-116129276D01*
X168199276Y-116058247D01*
X169285118Y-114972405D01*
X169347430Y-114938379D01*
X169374213Y-114935500D01*
X169874710Y-114935500D01*
X169942831Y-114955502D01*
X169985832Y-115002104D01*
X170060974Y-115142686D01*
X170192747Y-115303252D01*
X170353313Y-115435024D01*
X170353313Y-115435025D01*
X170353317Y-115435027D01*
X170536508Y-115532945D01*
X170735282Y-115593242D01*
X170735286Y-115593242D01*
X170735288Y-115593243D01*
X170941997Y-115613602D01*
X170942000Y-115613602D01*
X170942003Y-115613602D01*
X171148711Y-115593243D01*
X171148712Y-115593242D01*
X171148718Y-115593242D01*
X171347492Y-115532945D01*
X171530683Y-115435027D01*
X171530684Y-115435025D01*
X171530686Y-115435025D01*
X171530686Y-115435024D01*
X171691252Y-115303252D01*
X171823027Y-115142683D01*
X171920945Y-114959492D01*
X171981242Y-114760718D01*
X171987608Y-114696091D01*
X172001602Y-114554003D01*
X172001602Y-114553996D01*
X171981243Y-114347288D01*
X171981242Y-114347286D01*
X171981242Y-114347282D01*
X171920945Y-114148508D01*
X171823027Y-113965317D01*
X171823025Y-113965313D01*
X171691252Y-113804747D01*
X171530686Y-113672975D01*
X171530686Y-113672974D01*
X171347492Y-113575055D01*
X171148711Y-113514756D01*
X170942003Y-113494398D01*
X170941997Y-113494398D01*
X170735288Y-113514756D01*
X170536507Y-113575055D01*
X170353313Y-113672974D01*
X170353313Y-113672975D01*
X170192747Y-113804747D01*
X170060975Y-113965313D01*
X170060974Y-113965313D01*
X169985832Y-114105896D01*
X169936080Y-114156544D01*
X169874710Y-114172500D01*
X169113775Y-114172500D01*
X169054390Y-114188412D01*
X169016741Y-114198500D01*
X168964127Y-114228878D01*
X168929756Y-114248721D01*
X168929746Y-114248729D01*
X167772882Y-115405595D01*
X167710570Y-115439620D01*
X167683787Y-115442500D01*
X166831868Y-115442500D01*
X166763747Y-115422498D01*
X166727102Y-115386501D01*
X166698058Y-115343033D01*
X166698055Y-115343029D01*
X166633121Y-115278095D01*
X166599095Y-115215783D01*
X166604160Y-115144968D01*
X166633121Y-115099905D01*
X166698055Y-115034970D01*
X166698059Y-115034966D01*
X166727102Y-114991498D01*
X166781578Y-114945971D01*
X166831868Y-114935500D01*
X167436223Y-114935500D01*
X167436225Y-114935500D01*
X167533254Y-114909501D01*
X167533257Y-114909499D01*
X167533258Y-114909499D01*
X167576750Y-114884388D01*
X167620247Y-114859276D01*
X167691276Y-114788247D01*
X169723276Y-112756247D01*
X169773501Y-112669254D01*
X169799500Y-112572225D01*
X169799500Y-112073748D01*
X169819502Y-112005627D01*
X169841948Y-111979435D01*
X169897167Y-111930515D01*
X169897173Y-111930510D01*
X169984841Y-111803501D01*
X170039566Y-111659202D01*
X170044115Y-111621734D01*
X170072180Y-111556524D01*
X170131048Y-111516837D01*
X170202027Y-111515276D01*
X170249129Y-111539523D01*
X170301885Y-111582818D01*
X170353317Y-111625027D01*
X170536508Y-111722945D01*
X170735282Y-111783242D01*
X170735286Y-111783242D01*
X170735288Y-111783243D01*
X170941997Y-111803602D01*
X170942000Y-111803602D01*
X170942003Y-111803602D01*
X171148711Y-111783243D01*
X171148712Y-111783242D01*
X171148718Y-111783242D01*
X171347492Y-111722945D01*
X171530683Y-111625027D01*
X171530684Y-111625025D01*
X171530686Y-111625025D01*
X171530686Y-111625024D01*
X171691252Y-111493252D01*
X171823027Y-111332683D01*
X171920945Y-111149492D01*
X171981242Y-110950718D01*
X171982640Y-110936529D01*
X172001602Y-110744003D01*
X172001602Y-110743996D01*
X171981243Y-110537288D01*
X171981242Y-110537286D01*
X171981242Y-110537282D01*
X171920945Y-110338508D01*
X171823027Y-110155317D01*
X171823025Y-110155313D01*
X171691254Y-109994750D01*
X171691250Y-109994747D01*
X171661173Y-109970063D01*
X171623566Y-109939199D01*
X171583597Y-109880522D01*
X171577500Y-109841800D01*
X171577500Y-108141410D01*
X171577499Y-108141406D01*
X171572414Y-108115842D01*
X171553078Y-108018631D01*
X171505173Y-107902978D01*
X171435625Y-107798892D01*
X171347108Y-107710375D01*
X170037108Y-106400375D01*
X169933022Y-106330827D01*
X169817369Y-106282922D01*
X169694593Y-106258500D01*
X169694591Y-106258500D01*
X167448591Y-106258500D01*
X160273500Y-106258500D01*
X160205379Y-106238498D01*
X160158886Y-106184842D01*
X160147500Y-106132500D01*
X160147500Y-104026199D01*
X160167502Y-103958078D01*
X160193567Y-103928799D01*
X160261252Y-103873252D01*
X160393027Y-103712683D01*
X160490945Y-103529492D01*
X160551242Y-103330718D01*
X160556176Y-103280630D01*
X160571602Y-103124003D01*
X162262398Y-103124003D01*
X162282756Y-103330711D01*
X162343055Y-103529492D01*
X162440974Y-103712686D01*
X162572747Y-103873252D01*
X162733313Y-104005024D01*
X162733313Y-104005025D01*
X162733317Y-104005027D01*
X162916508Y-104102945D01*
X163115282Y-104163242D01*
X163115286Y-104163242D01*
X163115288Y-104163243D01*
X163321997Y-104183602D01*
X163322000Y-104183602D01*
X163322003Y-104183602D01*
X163528711Y-104163243D01*
X163528712Y-104163242D01*
X163528718Y-104163242D01*
X163727492Y-104102945D01*
X163910683Y-104005027D01*
X163910684Y-104005025D01*
X163910686Y-104005025D01*
X163910686Y-104005024D01*
X164071252Y-103873252D01*
X164203027Y-103712683D01*
X164300945Y-103529492D01*
X164361242Y-103330718D01*
X164366176Y-103280630D01*
X164381602Y-103124003D01*
X166072398Y-103124003D01*
X166092756Y-103330711D01*
X166153055Y-103529492D01*
X166250974Y-103712686D01*
X166382747Y-103873252D01*
X166543313Y-104005024D01*
X166543313Y-104005025D01*
X166543317Y-104005027D01*
X166726508Y-104102945D01*
X166925282Y-104163242D01*
X166925286Y-104163242D01*
X166925288Y-104163243D01*
X167131997Y-104183602D01*
X167132000Y-104183602D01*
X167132003Y-104183602D01*
X167338711Y-104163243D01*
X167338712Y-104163242D01*
X167338718Y-104163242D01*
X167537492Y-104102945D01*
X167720683Y-104005027D01*
X167720684Y-104005025D01*
X167720686Y-104005025D01*
X167720686Y-104005024D01*
X167881252Y-103873252D01*
X168013027Y-103712683D01*
X168110945Y-103529492D01*
X168171242Y-103330718D01*
X168176176Y-103280630D01*
X168191602Y-103124003D01*
X169882398Y-103124003D01*
X169902756Y-103330711D01*
X169963055Y-103529492D01*
X170060974Y-103712686D01*
X170192747Y-103873252D01*
X170353313Y-104005024D01*
X170353313Y-104005025D01*
X170353317Y-104005027D01*
X170536508Y-104102945D01*
X170735282Y-104163242D01*
X170735286Y-104163242D01*
X170735288Y-104163243D01*
X170941997Y-104183602D01*
X170942000Y-104183602D01*
X170942003Y-104183602D01*
X171148711Y-104163243D01*
X171148712Y-104163242D01*
X171148718Y-104163242D01*
X171347492Y-104102945D01*
X171530683Y-104005027D01*
X171530684Y-104005025D01*
X171530686Y-104005025D01*
X171530686Y-104005024D01*
X171691252Y-103873252D01*
X171823027Y-103712683D01*
X171920945Y-103529492D01*
X171981242Y-103330718D01*
X171986176Y-103280630D01*
X172001602Y-103124003D01*
X173692398Y-103124003D01*
X173712756Y-103330711D01*
X173773055Y-103529492D01*
X173870974Y-103712686D01*
X174002747Y-103873252D01*
X174163313Y-104005024D01*
X174163313Y-104005025D01*
X174163317Y-104005027D01*
X174346508Y-104102945D01*
X174545282Y-104163242D01*
X174545286Y-104163242D01*
X174545288Y-104163243D01*
X174751997Y-104183602D01*
X174752000Y-104183602D01*
X174752003Y-104183602D01*
X174958711Y-104163243D01*
X174958712Y-104163242D01*
X174958718Y-104163242D01*
X175157492Y-104102945D01*
X175340683Y-104005027D01*
X175340684Y-104005025D01*
X175340686Y-104005025D01*
X175340686Y-104005024D01*
X175501252Y-103873252D01*
X175633027Y-103712683D01*
X175730945Y-103529492D01*
X175791242Y-103330718D01*
X175796176Y-103280630D01*
X175811602Y-103124003D01*
X175811602Y-103123996D01*
X175791243Y-102917288D01*
X175791242Y-102917286D01*
X175791242Y-102917282D01*
X175730945Y-102718508D01*
X175633027Y-102535317D01*
X175633025Y-102535313D01*
X175501252Y-102374747D01*
X175340686Y-102242975D01*
X175340686Y-102242974D01*
X175157492Y-102145055D01*
X174958711Y-102084756D01*
X174752003Y-102064398D01*
X174751997Y-102064398D01*
X174545288Y-102084756D01*
X174346507Y-102145055D01*
X174163313Y-102242974D01*
X174163313Y-102242975D01*
X174002747Y-102374747D01*
X173870975Y-102535313D01*
X173870974Y-102535313D01*
X173773055Y-102718507D01*
X173712756Y-102917288D01*
X173692398Y-103123996D01*
X173692398Y-103124003D01*
X172001602Y-103124003D01*
X172001602Y-103123996D01*
X171981243Y-102917288D01*
X171981242Y-102917286D01*
X171981242Y-102917282D01*
X171920945Y-102718508D01*
X171823027Y-102535317D01*
X171823025Y-102535313D01*
X171691252Y-102374747D01*
X171530686Y-102242975D01*
X171530686Y-102242974D01*
X171347492Y-102145055D01*
X171148711Y-102084756D01*
X170942003Y-102064398D01*
X170941997Y-102064398D01*
X170735288Y-102084756D01*
X170536507Y-102145055D01*
X170353313Y-102242974D01*
X170353313Y-102242975D01*
X170192747Y-102374747D01*
X170060975Y-102535313D01*
X170060974Y-102535313D01*
X169963055Y-102718507D01*
X169902756Y-102917288D01*
X169882398Y-103123996D01*
X169882398Y-103124003D01*
X168191602Y-103124003D01*
X168191602Y-103123996D01*
X168171243Y-102917288D01*
X168171242Y-102917286D01*
X168171242Y-102917282D01*
X168110945Y-102718508D01*
X168013027Y-102535317D01*
X168013025Y-102535313D01*
X167881252Y-102374747D01*
X167720686Y-102242975D01*
X167720686Y-102242974D01*
X167537492Y-102145055D01*
X167338711Y-102084756D01*
X167132003Y-102064398D01*
X167131997Y-102064398D01*
X166925288Y-102084756D01*
X166726507Y-102145055D01*
X166543313Y-102242974D01*
X166543313Y-102242975D01*
X166382747Y-102374747D01*
X166250975Y-102535313D01*
X166250974Y-102535313D01*
X166153055Y-102718507D01*
X166092756Y-102917288D01*
X166072398Y-103123996D01*
X166072398Y-103124003D01*
X164381602Y-103124003D01*
X164381602Y-103123996D01*
X164361243Y-102917288D01*
X164361242Y-102917286D01*
X164361242Y-102917282D01*
X164300945Y-102718508D01*
X164203027Y-102535317D01*
X164203025Y-102535313D01*
X164071252Y-102374747D01*
X163910686Y-102242975D01*
X163910686Y-102242974D01*
X163727492Y-102145055D01*
X163528711Y-102084756D01*
X163322003Y-102064398D01*
X163321997Y-102064398D01*
X163115288Y-102084756D01*
X162916507Y-102145055D01*
X162733313Y-102242974D01*
X162733313Y-102242975D01*
X162572747Y-102374747D01*
X162440975Y-102535313D01*
X162440974Y-102535313D01*
X162343055Y-102718507D01*
X162282756Y-102917288D01*
X162262398Y-103123996D01*
X162262398Y-103124003D01*
X160571602Y-103124003D01*
X160571602Y-103123996D01*
X160551243Y-102917288D01*
X160551242Y-102917286D01*
X160551242Y-102917282D01*
X160490945Y-102718508D01*
X160393027Y-102535317D01*
X160393025Y-102535313D01*
X160261252Y-102374747D01*
X160100686Y-102242975D01*
X160100686Y-102242974D01*
X159917492Y-102145055D01*
X159718711Y-102084756D01*
X159512003Y-102064398D01*
X159511997Y-102064398D01*
X159305288Y-102084756D01*
X159106507Y-102145055D01*
X158923313Y-102242974D01*
X158923313Y-102242975D01*
X158762747Y-102374747D01*
X158630975Y-102535313D01*
X158630974Y-102535313D01*
X158533055Y-102718507D01*
X158472756Y-102917288D01*
X158452398Y-103123996D01*
X158452398Y-103124003D01*
X158472756Y-103330711D01*
X158472757Y-103330717D01*
X158472758Y-103330718D01*
X158533055Y-103529492D01*
X158630973Y-103712683D01*
X158762748Y-103873252D01*
X158830433Y-103928799D01*
X158870402Y-103987476D01*
X158876500Y-104026199D01*
X158876500Y-106132500D01*
X158856498Y-106200621D01*
X158802842Y-106247114D01*
X158750500Y-106258500D01*
X155524199Y-106258500D01*
X155456078Y-106238498D01*
X155423648Y-106208431D01*
X155417750Y-106200621D01*
X155366308Y-106132500D01*
X155325950Y-106079056D01*
X155160985Y-105928671D01*
X154971192Y-105811157D01*
X154971185Y-105811154D01*
X154842990Y-105761491D01*
X154786695Y-105718232D01*
X154762725Y-105651404D01*
X154778689Y-105582226D01*
X154829520Y-105532660D01*
X154842990Y-105526509D01*
X154873269Y-105514778D01*
X154971192Y-105476843D01*
X155160983Y-105359330D01*
X155325950Y-105208943D01*
X155460474Y-105030804D01*
X155559974Y-104830980D01*
X155621063Y-104616274D01*
X155632766Y-104489977D01*
X155641660Y-104394004D01*
X155641660Y-104393995D01*
X155621063Y-104171727D01*
X155620098Y-104168337D01*
X155559974Y-103957020D01*
X155460474Y-103757196D01*
X155426862Y-103712686D01*
X155325951Y-103579057D01*
X155160985Y-103428671D01*
X154971192Y-103311157D01*
X154971185Y-103311154D01*
X154763045Y-103230519D01*
X154707185Y-103220077D01*
X154543613Y-103189500D01*
X154320387Y-103189500D01*
X154222091Y-103207873D01*
X154151455Y-103200728D01*
X154109846Y-103173113D01*
X152502810Y-101566077D01*
X152502808Y-101566075D01*
X152398722Y-101496527D01*
X152283069Y-101448622D01*
X152160293Y-101424200D01*
X152160291Y-101424200D01*
X140637647Y-101424200D01*
X140569526Y-101404198D01*
X140530214Y-101364034D01*
X140412932Y-101172646D01*
X140412927Y-101172639D01*
X140259132Y-100992567D01*
X140079060Y-100838772D01*
X140079058Y-100838771D01*
X140079057Y-100838770D01*
X139877141Y-100715036D01*
X139658354Y-100624411D01*
X139428083Y-100569128D01*
X139192000Y-100550548D01*
X138955917Y-100569128D01*
X138725645Y-100624411D01*
X138506860Y-100715035D01*
X138304941Y-100838771D01*
X138304939Y-100838772D01*
X138124867Y-100992567D01*
X137971072Y-101172639D01*
X137971071Y-101172641D01*
X137847335Y-101374560D01*
X137756711Y-101593345D01*
X137701428Y-101823617D01*
X137682848Y-102059700D01*
X127500500Y-102059700D01*
X127500500Y-73660004D01*
X146668554Y-73660004D01*
X146688295Y-73873044D01*
X146688295Y-73873047D01*
X146688296Y-73873048D01*
X146746849Y-74078840D01*
X146842219Y-74270370D01*
X146842220Y-74270371D01*
X146842221Y-74270373D01*
X146971155Y-74441110D01*
X147129278Y-74585258D01*
X147129279Y-74585259D01*
X147311178Y-74697886D01*
X147311181Y-74697887D01*
X147311190Y-74697893D01*
X147510698Y-74775183D01*
X147510699Y-74775183D01*
X147510703Y-74775185D01*
X147620163Y-74795646D01*
X147683445Y-74827824D01*
X147719288Y-74889108D01*
X147716307Y-74960043D01*
X147675450Y-75018105D01*
X147609688Y-75044860D01*
X147597008Y-75045500D01*
X146902936Y-75045500D01*
X146902926Y-75045501D01*
X146828699Y-75060265D01*
X146744515Y-75116516D01*
X146688266Y-75200697D01*
X146673500Y-75274930D01*
X146673500Y-77125063D01*
X146673501Y-77125073D01*
X146688265Y-77199300D01*
X146744516Y-77283484D01*
X146828697Y-77339733D01*
X146828699Y-77339734D01*
X146902933Y-77354500D01*
X148753066Y-77354499D01*
X148753069Y-77354498D01*
X148753073Y-77354498D01*
X148802326Y-77344701D01*
X148827301Y-77339734D01*
X148911484Y-77283484D01*
X148967734Y-77199301D01*
X148982500Y-77125067D01*
X148982499Y-75274934D01*
X148982498Y-75274930D01*
X148982498Y-75274926D01*
X148967734Y-75200699D01*
X148911483Y-75116515D01*
X148827302Y-75060266D01*
X148753069Y-75045500D01*
X148058993Y-75045500D01*
X147990872Y-75025498D01*
X147944379Y-74971842D01*
X147934275Y-74901568D01*
X147963769Y-74836988D01*
X148023495Y-74798604D01*
X148035825Y-74795648D01*
X148145297Y-74775185D01*
X148344810Y-74697893D01*
X148526722Y-74585258D01*
X148684841Y-74441114D01*
X148813781Y-74270370D01*
X148909151Y-74078840D01*
X148967704Y-73873048D01*
X148987446Y-73660004D01*
X158352554Y-73660004D01*
X158372295Y-73873044D01*
X158372295Y-73873047D01*
X158372296Y-73873048D01*
X158430849Y-74078840D01*
X158526219Y-74270370D01*
X158526220Y-74270371D01*
X158526221Y-74270373D01*
X158655155Y-74441110D01*
X158813278Y-74585258D01*
X158813279Y-74585259D01*
X158995178Y-74697886D01*
X158995181Y-74697887D01*
X158995190Y-74697893D01*
X159194698Y-74775183D01*
X159194699Y-74775183D01*
X159194703Y-74775185D01*
X159304163Y-74795646D01*
X159367445Y-74827824D01*
X159403288Y-74889108D01*
X159400307Y-74960043D01*
X159359450Y-75018105D01*
X159293688Y-75044860D01*
X159281008Y-75045500D01*
X158586936Y-75045500D01*
X158586926Y-75045501D01*
X158512699Y-75060265D01*
X158428515Y-75116516D01*
X158372266Y-75200697D01*
X158357500Y-75274930D01*
X158357500Y-77125063D01*
X158357501Y-77125073D01*
X158372265Y-77199300D01*
X158428516Y-77283484D01*
X158512697Y-77339733D01*
X158512699Y-77339734D01*
X158586933Y-77354500D01*
X160437066Y-77354499D01*
X160437069Y-77354498D01*
X160437073Y-77354498D01*
X160486326Y-77344701D01*
X160511301Y-77339734D01*
X160595484Y-77283484D01*
X160651734Y-77199301D01*
X160666500Y-77125067D01*
X160666499Y-75274934D01*
X160666498Y-75274930D01*
X160666498Y-75274926D01*
X160651734Y-75200699D01*
X160595483Y-75116515D01*
X160511302Y-75060266D01*
X160437069Y-75045500D01*
X159742993Y-75045500D01*
X159674872Y-75025498D01*
X159628379Y-74971842D01*
X159618275Y-74901568D01*
X159647769Y-74836988D01*
X159707495Y-74798604D01*
X159719825Y-74795648D01*
X159829297Y-74775185D01*
X160028810Y-74697893D01*
X160210722Y-74585258D01*
X160368841Y-74441114D01*
X160497781Y-74270370D01*
X160593151Y-74078840D01*
X160651704Y-73873048D01*
X160671446Y-73660000D01*
X160651704Y-73446952D01*
X160593151Y-73241160D01*
X160497781Y-73049630D01*
X160497778Y-73049626D01*
X160368844Y-72878889D01*
X160210721Y-72734741D01*
X160210720Y-72734740D01*
X160028821Y-72622113D01*
X160028814Y-72622109D01*
X160028810Y-72622107D01*
X160028805Y-72622105D01*
X159829301Y-72544816D01*
X159829302Y-72544816D01*
X159829297Y-72544815D01*
X159618980Y-72505500D01*
X159405020Y-72505500D01*
X159246313Y-72535167D01*
X159194697Y-72544816D01*
X158995194Y-72622105D01*
X158995178Y-72622113D01*
X158813279Y-72734740D01*
X158813278Y-72734741D01*
X158655155Y-72878889D01*
X158526221Y-73049626D01*
X158430849Y-73241160D01*
X158430847Y-73241165D01*
X158372295Y-73446955D01*
X158352554Y-73659995D01*
X158352554Y-73660004D01*
X148987446Y-73660004D01*
X148987446Y-73660000D01*
X148967704Y-73446952D01*
X148909151Y-73241160D01*
X148813781Y-73049630D01*
X148813778Y-73049626D01*
X148684844Y-72878889D01*
X148526721Y-72734741D01*
X148526720Y-72734740D01*
X148344821Y-72622113D01*
X148344814Y-72622109D01*
X148344810Y-72622107D01*
X148344805Y-72622105D01*
X148145301Y-72544816D01*
X148145302Y-72544816D01*
X148145297Y-72544815D01*
X147934980Y-72505500D01*
X147721020Y-72505500D01*
X147562313Y-72535167D01*
X147510697Y-72544816D01*
X147311194Y-72622105D01*
X147311178Y-72622113D01*
X147129279Y-72734740D01*
X147129278Y-72734741D01*
X146971155Y-72878889D01*
X146842221Y-73049626D01*
X146746849Y-73241160D01*
X146746847Y-73241165D01*
X146688295Y-73446955D01*
X146668554Y-73659995D01*
X146668554Y-73660004D01*
X127500500Y-73660004D01*
X127500500Y-45847005D01*
X146433744Y-45847005D01*
X146452748Y-46149069D01*
X146452751Y-46149092D01*
X146509466Y-46446401D01*
X146509469Y-46446414D01*
X146602996Y-46734262D01*
X146603001Y-46734274D01*
X146731877Y-47008150D01*
X146731879Y-47008153D01*
X146731882Y-47008159D01*
X146894058Y-47263708D01*
X146894060Y-47263711D01*
X146894062Y-47263713D01*
X147086999Y-47496934D01*
X147307645Y-47704134D01*
X147552520Y-47882046D01*
X147817763Y-48027865D01*
X148099190Y-48139290D01*
X148392363Y-48214564D01*
X148692659Y-48252500D01*
X148692663Y-48252500D01*
X159155337Y-48252500D01*
X159155341Y-48252500D01*
X159455637Y-48214564D01*
X159748810Y-48139290D01*
X160030237Y-48027865D01*
X160295480Y-47882046D01*
X160540355Y-47704134D01*
X160761001Y-47496934D01*
X160953938Y-47263713D01*
X161116123Y-47008150D01*
X161244999Y-46734274D01*
X161338533Y-46446406D01*
X161395250Y-46149085D01*
X161414256Y-45847000D01*
X161395250Y-45544915D01*
X161338533Y-45247594D01*
X161324411Y-45204131D01*
X161245003Y-44959737D01*
X161244998Y-44959724D01*
X161116123Y-44685850D01*
X161005313Y-44511241D01*
X160953941Y-44430291D01*
X160953939Y-44430288D01*
X160761008Y-44197075D01*
X160760999Y-44197064D01*
X160540354Y-43989865D01*
X160295482Y-43811955D01*
X160254828Y-43789605D01*
X160030237Y-43666135D01*
X159748810Y-43554710D01*
X159455637Y-43479436D01*
X159455631Y-43479435D01*
X159455623Y-43479434D01*
X159155355Y-43441501D01*
X159155344Y-43441500D01*
X159155341Y-43441500D01*
X159069892Y-43441500D01*
X148909892Y-43441500D01*
X148844000Y-43441500D01*
X148692659Y-43441500D01*
X148692656Y-43441500D01*
X148692644Y-43441501D01*
X148392376Y-43479434D01*
X148392363Y-43479436D01*
X148099193Y-43554709D01*
X147817763Y-43666135D01*
X147552517Y-43811955D01*
X147307646Y-43989865D01*
X147307645Y-43989865D01*
X147087000Y-44197064D01*
X147086991Y-44197075D01*
X146894060Y-44430288D01*
X146894058Y-44430291D01*
X146731882Y-44685840D01*
X146731875Y-44685854D01*
X146603001Y-44959724D01*
X146602996Y-44959737D01*
X146509469Y-45247585D01*
X146509466Y-45247598D01*
X146452751Y-45544907D01*
X146452748Y-45544930D01*
X146433744Y-45846994D01*
X146433744Y-45847005D01*
X127500500Y-45847005D01*
X127500500Y-42028500D01*
X127520502Y-41960379D01*
X127574158Y-41913886D01*
X127626500Y-41902500D01*
X180221500Y-41902500D01*
X180289621Y-41922502D01*
G37*
%TD.AperFunction*%
%TD*%
M02*
